<svg xmlns="http://www.w3.org/2000/svg" viewBox="0 0 50 50"><defs><style>.cls-1{fill:#979fef}.cls-3{fill:#6a52fd}.cls-4{fill:#14e3ba}</style></defs><g id="Layer_2" data-name="Layer 2"><g id="Layer_1-2" data-name="Layer 1"><path class="cls-1" d="M18.79 20.15a1.45 1.45 0 0 1-1-.43L11 12.93a1.46 1.46 0 0 1 2-2.07l6.79 6.79a1.47 1.47 0 0 1 0 2.07 1.43 1.43 0 0 1-1 .43z"/><path d="M16.21 26.37H7.32a1.47 1.47 0 0 1 0-2.93h8.89a1.47 1.47 0 1 1 0 2.93zm23.92 10.36a1.48 1.48 0 0 1-.91-.32l-7.5-6a1.47 1.47 0 1 1 1.83-2.29l7.5 6a1.47 1.47 0 0 1-.92 2.61zM25 17.58a1.46 1.46 0 0 1-1.46-1.47V7.32a1.46 1.46 0 0 1 2.92 0v8.79A1.46 1.46 0 0 1 25 17.58z" fill="#40f4d2"/><path class="cls-1" d="M31.21 20.15a1.46 1.46 0 0 1-1-2.51l7.31-7.22a1.47 1.47 0 1 1 2.06 2.09l-7.32 7.22a1.44 1.44 0 0 1-1 .42zM25 41.21a1.46 1.46 0 0 1-1.46-1.46v-6.06a1.46 1.46 0 0 1 2.92 0v6.06A1.46 1.46 0 0 1 25 41.21z"/><path class="cls-3" d="M25 35.16A10.26 10.26 0 1 1 35.25 24.9 10.27 10.27 0 0 1 25 35.16zm0-17.58a7.33 7.33 0 1 0 7.32 7.32A7.32 7.32 0 0 0 25 17.58z"/><path class="cls-4" d="M25 8.79a4.4 4.4 0 1 1 4.39-4.4A4.4 4.4 0 0 1 25 8.79zm0-5.86a1.47 1.47 0 1 0 1.46 1.46A1.46 1.46 0 0 0 25 2.93z"/><path class="cls-3" d="M8.89 14.65a5.86 5.86 0 1 1 5.86-5.86 5.87 5.87 0 0 1-5.86 5.86zm0-8.79a2.93 2.93 0 1 0 2.93 2.93 2.93 2.93 0 0 0-2.93-2.93zm33.79 8.79A7.33 7.33 0 1 1 50 7.32a7.34 7.34 0 0 1-7.32 7.33zm0-11.72a4.4 4.4 0 1 0 4.39 4.39 4.4 4.4 0 0 0-4.39-4.39z"/><path class="cls-4" d="M4.39 29.3a4.4 4.4 0 1 1 4.4-4.4 4.4 4.4 0 0 1-4.4 4.4zm0-5.86a1.47 1.47 0 1 0 1.47 1.46 1.46 1.46 0 0 0-1.47-1.46zm38.29 17.67a4.4 4.4 0 0 1-4.4-4.39 4.49 4.49 0 0 1 1.27-3.13 4.28 4.28 0 0 1 6.26 0 4.52 4.52 0 0 1 1.26 3.13 4.4 4.4 0 0 1-4.39 4.39zm0-6a1.56 1.56 0 0 0-1.47 1.56 1.47 1.47 0 0 0 2.93 0 1.55 1.55 0 0 0-1.46-1.56z"/><path class="cls-3" d="M25 50a5.86 5.86 0 1 1 5.86-5.86A5.87 5.87 0 0 1 25 50zm0-8.79a2.93 2.93 0 1 0 2.93 2.93A2.93 2.93 0 0 0 25 41.21z"/></g></g></svg>