<svg viewBox="0 0 141 57" version="1.1" xmlns="http://www.w3.org/2000/svg" xmlns:xlink="http://www.w3.org/1999/xlink">
  <g fill="none" fill-rule="evenodd">
    <path fill="#000" d="M64.883 39.455h-2.96L48.869 23.493v15.962h-3.713V16.914h2.813l13.2 15.962V16.914h3.714v22.54zm25.344.01H70.5V16.914h3.86v19.33h12.165v-19.33h3.713v22.551h-.01zm25.366-.01H95.865V16.914h4.226v19.33h15.502v3.21zm25.344.01H121.21v-3.221h16.129V29.8h-16.13V16.914h19.582v3.221h-15.983v6.297h16.13v13.033z"></path>
    <path fill="#7DB43D" d="M33.88 7.406L17.06.01V18.64l4.644 6.422V6.882l7.532 3.285v27.76l-8.327-5.072L4.707 10.314H3.87a3.828 3.828 0 0 0-3.818 3.828V48.994l12.353 5.366v.01l4.645 2.01V43.826l-4.645-6.38V49.57l-7.698-3.368V18.64l12.458 17.31 12.07 7.48h.837A3.828 3.828 0 0 0 33.89 39.6V7.406h-.01z"></path>
  </g>
</svg>
