<svg xmlns="http://www.w3.org/2000/svg" viewBox="0 0 764.4 666.18"><defs><style>.cls-1,.cls-12,.cls-2,.cls-5,.cls-7{isolation:isolate;}.cls-2{font-size:36px;fill:#384861;font-family:Arial-BoldMT, Arial;font-weight:700;}.cls-13,.cls-14,.cls-16,.cls-17,.cls-19,.cls-20,.cls-22,.cls-23,.cls-25,.cls-26,.cls-28,.cls-29,.cls-3{fill:none;stroke-width:2px;}.cls-3,.cls-4{stroke:#595757;}.cls-4{fill:#595757;}.cls-14,.cls-17,.cls-20,.cls-23,.cls-26,.cls-29,.cls-4{stroke-linecap:round;}.cls-5{font-size:14px;}.cls-5,.cls-7{fill:#454545;}.cls-12,.cls-5,.cls-7{font-family:ArialMT, Arial;}.cls-6{letter-spacing:-0.06em;}.cls-7{font-size:13px;}.cls-8{letter-spacing:-0.07em;}.cls-9{letter-spacing:-0.02em;}.cls-10{letter-spacing:-0.04em;}.cls-11{fill:#37a2aa;stroke:#34a3aa;}.cls-12{font-size:16px;fill:#fff;}.cls-13,.cls-14{stroke:#37a2aa;}.cls-13,.cls-16,.cls-19,.cls-22,.cls-25,.cls-28{stroke-dasharray:11 5;}.cls-14,.cls-17,.cls-20,.cls-23,.cls-26,.cls-29{stroke-linejoin:round;}.cls-15{fill:#445775;}.cls-15,.cls-16,.cls-17{stroke:#445775;}.cls-18{fill:#fc9e22;}.cls-18,.cls-19,.cls-20{stroke:#fc9e22;}.cls-21{fill:#fb6439;}.cls-21,.cls-22,.cls-23{stroke:#fb6439;}.cls-24{fill:#fdc82c;}.cls-24,.cls-25,.cls-26{stroke:#fdc82c;}.cls-27{fill:#e2467b;}.cls-27,.cls-28,.cls-29{stroke:#e2467b;}</style></defs><title>Asset 1</title><g id="Layer_2" data-name="Layer 2"><g id="Layer_1-2" data-name="Layer 1"><g id="page1"><g id="shape1"><g class="cls-1"><text class="cls-2" transform="translate(282.82 30.88)">Road Map</text></g></g><g id="shape2"><path class="cls-3" d="M325.66,660.48l93.2-58c14.1-8.7,14-22.8-.2-31.3l-85.6-52c-14.2-8.5-14.1-22.3.2-30.6l85.2-49.8c14.3-8.3,14.5-22.2.4-30.9l-89-55.4c-14.1-8.7-13.9-22.6.4-30.9l87.2-50.8c14.3-8.3,14.7-22.6,1-31.8l-84.2-56.6c-13.7-9.2-13.6-24,.2-33.1l96.2-62.5"/><path class="cls-4" d="M317.36,665.68l19.6-5.5-11.3.3,5.4-10-13.7,15.2"/><path class="cls-4" d="M427.56,82l9.5-6.1,6.1,9.5-9.5,6.1-6.1-9.5"/></g><g id="shape3"><g class="cls-1"><text class="cls-5" transform="translate(0.46 158.58)">Economic &amp; Security<tspan class="cls-6" x="129.16" y="0"> </tspan><tspan x="132.28" y="0">Audit</tspan></text><text class="cls-5" transform="translate(0.46 180.18)">Exchange Launchpool</text><text class="cls-5" transform="translate(0.46 201.78)">Shield Farms</text><text class="cls-5" transform="translate(0.46 223.38)">Exchange listing</text></g></g><g id="shape4"><g class="cls-1"><text class="cls-7" transform="translate(0.46 287.38)">Smart<tspan class="cls-6" x="34.67" y="0"> </tspan><tspan x="37.57" y="0">Asset Management, </tspan></text><text class="cls-7" transform="translate(0.46 308.18)">Delegation &amp; Curation</text><text class="cls-7" transform="translate(0.46 328.98)">Pooling Mechanism</text><text class="cls-7" transform="translate(0.46 349.78)">Shield <tspan class="cls-8" x="39.75" y="0">V</tspan><tspan x="47.46" y="0">ault &amp;</tspan><tspan class="cls-9" x="80.7" y="0"> </tspan><tspan class="cls-10" x="84.07" y="0">T</tspan><tspan x="91.53" y="0">reasury</tspan></text><text class="cls-7" transform="translate(0.46 370.58)">Ethereum DeFi protocols integrations</text><text class="cls-7" transform="translate(0.46 391.38)">Analytics Engine Indexers with Graph</text></g></g><g id="shape5"><g class="cls-1"><text class="cls-5" transform="translate(0.26 534.78)">Plan for 2022 to be </text><text class="cls-5" transform="translate(0.26 556.38)">announced in Q4 2021</text></g></g><g id="shape6"><g class="cls-1"><text class="cls-5" transform="translate(505.1 144.74)">Old Cover Protocol hack.</text></g></g><g id="shape7"><g class="cls-1"><text class="cls-5" transform="translate(505.1 238.45)">Shield L<tspan class="cls-9" x="50.59" y="0">P</tspan><tspan x="59.68" y="0" xml:space="preserve"> &amp; Farms</tspan></text><text class="cls-5" transform="translate(505.1 260.05)">Exchange<tspan class="cls-6" x="62.27" y="0"> </tspan><tspan x="65.39" y="0">Access Integration</tspan></text><text class="cls-5" transform="translate(505.1 281.65)">Shield <tspan class="cls-8" x="42.81" y="0">V</tspan><tspan x="51.11" y="0">ault &amp;</tspan><tspan class="cls-9" x="86.91" y="0"> </tspan><tspan class="cls-10" x="90.54" y="0">Y</tspan><tspan x="99.36" y="0">ield Engine</tspan></text><text class="cls-5" transform="translate(505.1 303.25)">Fiat Gateway integration</text></g></g><g id="shape8"><g class="cls-1"><text class="cls-5" transform="translate(504.9 469.73)">Under development</text></g></g><g id="shape9"><path class="cls-11" d="M349.8,289.26l37.7-21.7a21.9,21.9,0,0,0,0-40.2L322,189.56a23.4,23.4,0,0,0-12.4-3.7,21.89,21.89,0,0,0-21.9,21.9V289h0a21.81,21.81,0,0,0,21.7,19.6,29.58,29.58,0,0,0,10.9-2.3Z"/><g class="cls-1"><text class="cls-12" transform="translate(297.3 254.86)">2021 Q1</text></g></g><g id="shape10"><path class="cls-13" d="M287.2,246.71H12.4"/><path class="cls-14" d="M1,246.71A5.76,5.76,0,0,1,6.7,241a5.7,5.7,0,0,1,0,11.4,5.76,5.76,0,0,1-5.7-5.7"/></g><g id="shape11"><path class="cls-15" d="M407.6,206.25l-37.7-21.7a21.9,21.9,0,0,1,0-40.2l65.5-37.8a23.4,23.4,0,0,1,12.4-3.7,21.89,21.89,0,0,1,21.9,21.9V206h0a21.81,21.81,0,0,1-21.7,19.6,29.58,29.58,0,0,1-10.9-2.3Z"/><g class="cls-1"><text class="cls-12" transform="translate(397.9 171.85)">2020</text></g></g><g id="shape12"><path class="cls-16" d="M469.9,163.75H752"/><path class="cls-17" d="M763.4,163.75a5.7,5.7,0,1,0-5.7,5.7,5.76,5.76,0,0,0,5.7-5.7"/></g><g id="shape13"><path class="cls-18" d="M406.86,371.58l-37.7-21.7a21.9,21.9,0,0,1,0-40.2l65.5-37.8a23.4,23.4,0,0,1,12.4-3.7,21.89,21.89,0,0,1,21.9,21.9v81.2h0a21.81,21.81,0,0,1-21.7,19.6,29.58,29.58,0,0,1-10.9-2.3Z"/><g class="cls-1"><text class="cls-12" transform="translate(378.06 337.18)">2021 Q2</text></g></g><g id="shape14"><path class="cls-19" d="M469.86,329.08H752"/><path class="cls-20" d="M763.36,329.08a5.7,5.7,0,1,0-5.7,5.7,5.76,5.76,0,0,0,5.7-5.7"/></g><g id="shape15"><path class="cls-21" d="M349.8,456.88l37.7-21.7a21.9,21.9,0,0,0,0-40.2L322,357.18a23.4,23.4,0,0,0-12.4-3.7,21.89,21.89,0,0,0-21.9,21.9v81.2h0a21.81,21.81,0,0,0,21.7,19.6,29.58,29.58,0,0,0,10.9-2.3Z"/><g class="cls-1"><text class="cls-12" transform="translate(297.3 422.48)">2021 Q3</text></g></g><g id="shape16"><path class="cls-22" d="M287.2,414.33H12.4"/><path class="cls-23" d="M1,414.33a5.76,5.76,0,0,1,5.7-5.7,5.7,5.7,0,1,1,0,11.4,5.76,5.76,0,0,1-5.7-5.7"/></g><g id="shape17"><path class="cls-24" d="M350.8,626.2l37.7-21.7a21.9,21.9,0,0,0,0-40.2L323,526.5a23.4,23.4,0,0,0-12.4-3.7,21.89,21.89,0,0,0-21.9,21.9v81.2h0a21.81,21.81,0,0,0,21.7,19.6,29.58,29.58,0,0,0,10.9-2.3Z"/><g class="cls-1"><text class="cls-12" transform="translate(319.1 591.8)">2022</text></g></g><g id="shape18"><path class="cls-25" d="M287.2,583.65H12.4"/><path class="cls-26" d="M1,583.65A5.76,5.76,0,0,1,6.7,578a5.7,5.7,0,0,1,0,11.4,5.76,5.76,0,0,1-5.7-5.7"/></g><g id="shape19"><path class="cls-27" d="M407.6,540.9l-37.7-21.7a21.9,21.9,0,0,1,0-40.2l65.5-37.8a23.4,23.4,0,0,1,12.4-3.7,21.89,21.89,0,0,1,21.9,21.9v81.2h0A21.81,21.81,0,0,1,448,560.2a29.58,29.58,0,0,1-10.9-2.3Z"/><g class="cls-1"><text class="cls-12" transform="translate(376.3 506.5)">2021 Q4</text></g></g><g id="shape20"><path class="cls-28" d="M469.9,498.4H752"/><path class="cls-29" d="M763.4,498.4a5.7,5.7,0,1,0-5.7,5.7,5.76,5.76,0,0,0,5.7-5.7"/></g></g></g></g></svg>