<svg xmlns:ev="http://www.w3.org/2001/xml-events" xmlns:xlink="http://www.w3.org/1999/xlink" height="782" viewBox="0 0 854 782" width="854" xmlns="http://www.w3.org/2000/svg"><style type="text/css"><![CDATA[
.st4 {fill:#1f6391;font-family:Arial;font-size:13pt}
.st2 {fill:#1f6391;font-family:Arial;font-size:14pt}
.st1 {fill:#384861;font-family:Arial;font-size:36pt;font-weight:bold}
.st3 {fill:#454545}
.st5 {fill:#ffffff;font-family:Arial;font-size:16pt}
]]></style><defs/><g id="page1" transform="translate(5,5)"><rect stroke="#808080" x="0" y="0" fill="#f0f2f5" height="772" width="844"/><g id="shape1" transform="translate(193.06,40.3)"><text class="st1"><tspan x="130.7" y="51.8">Road Map</tspan></text></g><g id="shape2" transform="matrix(-1,0,0,-1,485.3,726.9)"><path stroke="#595757" d="M118.7,5.2L25.5,63.2C11.4,71.9,11.5,86,25.7,94.5L111.3,146.5C125.5,155,125.4,168.8,111.1,177.1L25.9,226.9C11.6,235.2,11.4,249.1,25.5,257.8L114.5,313.2C128.6,321.9,128.4,335.8,114.1,344.1L26.9,394.9C12.6,403.2,12.2,417.5,25.9,426.7L110.1,483.3C123.8,492.5,123.7,507.3,109.9,516.4L13.7,578.9" stroke-width="2" fill="none"/><path stroke="#595757" stroke-linecap="round" d="M127,0L107.4,5.5L118.7,5.2L113.3,15.2L127,0" stroke-width="1" fill="#595757"/><path stroke="#595757" stroke-linecap="round" d="M16.8,583.7L7.3,589.8L1.2,580.3L10.7,574.2L16.8,583.7" stroke-width="1" fill="#595757"/></g><g id="shape3" transform="translate(38,199.8)"><text class="st2"><tspan x="3.4" y="20" class="st3">Economic &amp; Security Audit</tspan><tspan x="3.4" y="41.6" class="st3">Exchange Launchpool</tspan><tspan x="3.4" y="63.2" class="st3">Shield Farms</tspan><tspan x="3.4" y="84.8" class="st3">Exchange listing</tspan></text></g><g id="shape4" transform="translate(38,329.4)"><text class="st4"><tspan x="3.4" y="19.2" class="st3">Smart Asset Management, </tspan><tspan x="3.4" y="40" class="st3">Delegation &amp; Curation</tspan><tspan x="3.4" y="60.8" class="st3">Pooling Mechanism</tspan><tspan x="3.4" y="81.6" class="st3">Shield Vault &amp; Treasury</tspan><tspan x="3.4" y="102.4" class="st3">Ethereum DeFi protocols integrations</tspan><tspan x="3.4" y="123.2" class="st3">Analytics Engine Indexers with Graph</tspan></text></g><g id="shape5" transform="translate(38,576)"><text class="st2"><tspan x="3.2" y="20" class="st3">Plan for 2022 to be </tspan><tspan x="3.2" y="41.6" class="st3">announced in Q4 2021</tspan></text></g><g id="shape6" transform="translate(542.64,173.16)"><text class="st2"><tspan x="3.4" y="32.8" class="st3">Old Cover Protocol hack.</tspan></text></g><g id="shape7" transform="translate(542.64,279.67)"><text class="st2"><tspan x="3.4" y="20" class="st3">Shield LP &amp; Farms</tspan><tspan x="3.4" y="41.6" class="st3">Exchange Access Integration</tspan><tspan x="3.4" y="63.2" class="st3">Shield Vault &amp; Yield Engine</tspan><tspan x="3.4" y="84.8" class="st3">Fiat Gateway integration</tspan></text></g><g id="shape8" transform="translate(542.64,510.95)"><text class="st2"><tspan x="3.2" y="20" class="st3">Under development</tspan></text></g><g transform="translate(47.64,247.08)"><g id="shape9" transform="translate(281,0)"><path stroke="#34a3aa" d="M62.1,103.4L99.8,81.7C107.5,78.3,113,70.6,113,61.6C113,52.6,107.5,44.8,99.8,41.5L34.3,3.7C30.6,1.4,26.4,0,21.9,0C9.8,0,0,9.8,0,21.9C0,22.6,0,23.3,0,23.9L0,100.7C0,100.8,0,100.8,0,100.8C0,100.9,0,100.9,0,100.9C0,101.7,0,102.4,0,103.1C0,103.1,0,103.1,0,103.1C1.1,114.2,10.5,122.7,21.7,122.7C25.5,122.7,29,121.8,32.6,120.4L62.1,103.4z" fill="#37a2aa"/><text class="st5"><tspan x="9.6" y="69">2021 Q1</tspan></text></g><g id="shape10" transform="translate(0,60.85)"><path stroke="#37a2aa" d="M280.5,0L5.7,0" stroke-width="2" fill="none" stroke-dasharray="11,5"/><path stroke-linejoin="round" stroke="#37a2aa" stroke-linecap="round" d="M-5.7,0C-5.7,-3.1,-3.1,-5.7,0,-5.7C3.1,-5.7,5.7,-3.1,5.7,0C5.7,3.1,3.1,5.7,0,5.7C-3.1,5.7,-5.7,3.1,-5.7,0" stroke-width="2" fill="none"/></g></g><g transform="translate(397.64,164.07)"><g id="shape11"><path stroke="#445775" d="M50.9,103.4L13.2,81.7C5.5,78.3,0,70.6,0,61.6C0,52.6,5.5,44.8,13.2,41.5L78.7,3.7C82.4,1.4,86.6,0,91.1,0C103.2,0,113,9.8,113,21.9C113,22.6,113,23.3,113,23.9L113,100.7C113,100.8,113,100.8,113,100.8C113,100.9,113,100.9,113,100.9C113,101.7,113,102.4,113,103.1C113,103.1,113,103.1,113,103.1C111.9,114.2,102.5,122.7,91.3,122.7C87.5,122.7,84,121.8,80.4,120.4L50.9,103.4z" fill="#445775"/><text class="st5"><tspan x="41.2" y="69">2020</tspan></text></g><g id="shape12" transform="matrix(-1,0,0,1,401,60.9)"><path stroke="#445775" d="M287.8,0L5.7,0" stroke-width="2" fill="none" stroke-dasharray="11,5"/><path stroke-linejoin="round" stroke="#445775" stroke-linecap="round" d="M-5.7,0C-5.7,-3.1,-3.1,-5.7,0,-5.7C3.1,-5.7,5.7,-3.1,5.7,0C5.7,3.1,3.1,5.7,0,5.7C-3.1,5.7,-5.7,3.1,-5.7,0" stroke-width="2" fill="none"/></g></g><g transform="translate(396.9,329.4)"><g id="shape13"><path stroke="#fc9e22" d="M50.9,103.4L13.2,81.7C5.5,78.3,0,70.6,0,61.6C0,52.6,5.5,44.8,13.2,41.5L78.7,3.7C82.4,1.4,86.6,0,91.1,0C103.2,0,113,9.8,113,21.9C113,22.6,113,23.3,113,23.9L113,100.7C113,100.8,113,100.8,113,100.8C113,100.9,113,100.9,113,100.9C113,101.7,113,102.4,113,103.1C113,103.1,113,103.1,113,103.1C111.9,114.2,102.5,122.7,91.3,122.7C87.5,122.7,84,121.8,80.4,120.4L50.9,103.4z" fill="#fc9e22"/><text class="st5"><tspan x="22.1" y="69">2021 Q2</tspan></text></g><g id="shape14" transform="matrix(-1,0,0,1,401.7,60.9)"><path stroke="#fc9e22" d="M287.8,0L5.7,0" stroke-width="2" fill="none" stroke-dasharray="11,5"/><path stroke-linejoin="round" stroke="#fc9e22" stroke-linecap="round" d="M-5.7,0C-5.7,-3.1,-3.1,-5.7,0,-5.7C3.1,-5.7,5.7,-3.1,5.7,0C5.7,3.1,3.1,5.7,0,5.7C-3.1,5.7,-5.7,3.1,-5.7,0" stroke-width="2" fill="none"/></g></g><g transform="translate(47.64,414.7)"><g id="shape15" transform="translate(281,0)"><path stroke="#fb6439" d="M62.1,103.4L99.8,81.7C107.5,78.3,113,70.6,113,61.6C113,52.6,107.5,44.8,99.8,41.5L34.3,3.7C30.6,1.4,26.4,0,21.9,0C9.8,0,0,9.8,0,21.9C0,22.6,0,23.3,0,23.9L0,100.7C0,100.8,0,100.8,0,100.8C0,100.9,0,100.9,0,100.9C0,101.7,0,102.4,0,103.1C0,103.1,0,103.1,0,103.1C1.1,114.2,10.5,122.7,21.7,122.7C25.5,122.7,29,121.8,32.6,120.4L62.1,103.4z" fill="#fb6439"/><text class="st5"><tspan x="9.6" y="69">2021 Q3</tspan></text></g><g id="shape16" transform="translate(0,60.85)"><path stroke="#fb6439" d="M280.5,0L5.7,0" stroke-width="2" fill="none" stroke-dasharray="11,5"/><path stroke-linejoin="round" stroke="#fb6439" stroke-linecap="round" d="M-5.7,0C-5.7,-3.1,-3.1,-5.7,0,-5.7C3.1,-5.7,5.7,-3.1,5.7,0C5.7,3.1,3.1,5.7,0,5.7C-3.1,5.7,-5.7,3.1,-5.7,0" stroke-width="2" fill="none"/></g></g><g transform="translate(47.64,584.02)"><g id="shape17" transform="translate(282,0)"><path stroke="#fdc82c" d="M62.1,103.4L99.8,81.7C107.5,78.3,113,70.6,113,61.6C113,52.6,107.5,44.8,99.8,41.5L34.3,3.7C30.6,1.4,26.4,0,21.9,0C9.8,0,0,9.8,0,21.9C0,22.6,0,23.3,0,23.9L0,100.7C0,100.8,0,100.8,0,100.8C0,100.9,0,100.9,0,100.9C0,101.7,0,102.4,0,103.1C0,103.1,0,103.1,0,103.1C1.1,114.2,10.5,122.7,21.7,122.7C25.5,122.7,29,121.8,32.6,120.4L62.1,103.4z" fill="#fdc82c"/><text class="st5"><tspan x="30.4" y="69">2022</tspan></text></g><g id="shape18" transform="translate(0,60.85)"><path stroke="#fdc82c" d="M280.5,0L5.7,0" stroke-width="2" fill="none" stroke-dasharray="11,5"/><path stroke-linejoin="round" stroke="#fdc82c" stroke-linecap="round" d="M-5.7,0C-5.7,-3.1,-3.1,-5.7,0,-5.7C3.1,-5.7,5.7,-3.1,5.7,0C5.7,3.1,3.1,5.7,0,5.7C-3.1,5.7,-5.7,3.1,-5.7,0" stroke-width="2" fill="none"/></g></g><g transform="translate(397.64,498.72)"><g id="shape19"><path stroke="#e2467b" d="M50.9,103.4L13.2,81.7C5.5,78.3,0,70.6,0,61.6C0,52.6,5.5,44.8,13.2,41.5L78.7,3.7C82.4,1.4,86.6,0,91.1,0C103.2,0,113,9.8,113,21.9C113,22.6,113,23.3,113,23.9L113,100.7C113,100.8,113,100.8,113,100.8C113,100.9,113,100.9,113,100.9C113,101.7,113,102.4,113,103.1C113,103.1,113,103.1,113,103.1C111.9,114.2,102.5,122.7,91.3,122.7C87.5,122.7,84,121.8,80.4,120.4L50.9,103.4z" fill="#e2467b"/><text class="st5"><tspan x="19.6" y="69">2021 Q4</tspan></text></g><g id="shape20" transform="matrix(-1,0,0,1,401,60.9)"><path stroke="#e2467b" d="M287.8,0L5.7,0" stroke-width="2" fill="none" stroke-dasharray="11,5"/><path stroke-linejoin="round" stroke="#e2467b" stroke-linecap="round" d="M-5.7,0C-5.7,-3.1,-3.1,-5.7,0,-5.7C3.1,-5.7,5.7,-3.1,5.7,0C5.7,3.1,3.1,5.7,0,5.7C-3.1,5.7,-5.7,3.1,-5.7,0" stroke-width="2" fill="none"/></g></g></g></svg>